{
  "accessors": [
    {
      "bufferView": 2,
      "componentType": 5126,
      "count": 1848,
      "max": [
        0.07018999755382538,
        17.06879997253418,
        0.0
      ],
      "min": [
        -0.010579999536275864,
        0.0,
        -6.203159809112549
      ],
      "type": "VEC3"
    },
    {
      "bufferView": 2,
      "byteOffset": 22176,
      "componentType": 5126,
      "count": 1848,
      "max": [
        0.9999716877937317,
        0.22505983710289001,
        0.11065007001161575
      ],
      "min": [
        0.9709667563438416,
        -0.22135920822620392,
        -0.014040004462003708
      ],
      "type": "VEC3"
    },
    {
      "bufferView": 2,
      "byteOffset": 44352,
      "componentType": 5126,
      "count": 1848,
      "max": [
        0.800000011920929,
        0.7529411911964417,
        0.20392157137393951
      ],
      "min": [
        0.47843137383461,
        0.062745101749897,
        0.0784313753247261
      ],
      "type": "VEC3"
    },
    {
      "bufferView": 1,
      "componentType": 5126,
      "count": 1848,
      "max": [
        0.0,
        0.0
      ],
      "min": [
        0.0,
        0.0
      ],
      "type": "VEC2"
    },
    {
      "bufferView": 0,
      "componentType": 5125,
      "count": 1848,
      "type": "SCALAR"
    }
  ],
  "asset": {
    "extras": {
      "author": "daedaljs (https://sketchfab.com/daedalJS)",
      "license": "CC-BY-4.0 (http://creativecommons.org/licenses/by/4.0/)",
      "source": "https://sketchfab.com/3d-models/stage-curtains-6b18d65628334387a71115f939de70c7",
      "title": "Stage Curtains"
    },
    "generator": "Sketchfab-12.68.0",
    "version": "2.0"
  },
  "bufferViews": [
    {
      "buffer": 0,
      "byteLength": 7392,
      "name": "floatBufferViews",
      "target": 34963
    },
    {
      "buffer": 0,
      "byteLength": 14784,
      "byteOffset": 7392,
      "byteStride": 8,
      "name": "floatBufferViews",
      "target": 34962
    },
    {
      "buffer": 0,
      "byteLength": 66528,
      "byteOffset": 22176,
      "byteStride": 12,
      "name": "floatBufferViews",
      "target": 34962
    }
  ],
  "buffers": [
    {
      "byteLength": 88704,
      "uri": "scene.bin"
    }
  ],
  "images": [
    {
      "uri": "textures/beams_metallicRoughness.png"
    }
  ],
  "materials": [
    {
      "doubleSided": true,
      "name": "beams",
      "pbrMetallicRoughness": {
        "metallicRoughnessTexture": {
          "index": 0
        }
      }
    }
  ],
  "meshes": [
    {
      "name": "Stage Curtains_0",
      "primitives": [
        {
          "attributes": {
            "COLOR_0": 2,
            "NORMAL": 1,
            "POSITION": 0,
            "TEXCOORD_0": 3
          },
          "indices": 4,
          "material": 0,
          "mode": 4
        }
      ]
    }
  ],
  "nodes": [
    {
      "children": [
        1
      ],
      "matrix": [
        1.0,
        0.0,
        0.0,
        0.0,
        0.0,
        2.220446049250313e-16,
        -1.0,
        0.0,
        0.0,
        1.0,
        2.220446049250313e-16,
        0.0,
        0.0,
        0.0,
        0.0,
        1.0
      ],
      "name": "Sketchfab_model"
    },
    {
      "children": [
        2
      ],
      "name": "Root"
    },
    {
      "children": [
        3
      ],
      "matrix": [
        1.0,
        0.0,
        0.0,
        0.0,
        0.0,
        1.0,
        0.0,
        0.0,
        0.0,
        0.0,
        1.0,
        0.0,
        0.0,
        0.0,
        6.327019999999999,
        1.0
      ],
      "name": "Stage Curtains"
    },
    {
      "mesh": 0,
      "name": "Stage Curtains_0"
    }
  ],
  "samplers": [
    {
      "magFilter": 9729,
      "minFilter": 9987,
      "wrapS": 10497,
      "wrapT": 10497
    }
  ],
  "scene": 0,
  "scenes": [
    {
      "name": "Sketchfab_Scene",
      "nodes": [
        0
      ]
    }
  ],
  "textures": [
    {
      "sampler": 0,
      "source": 0
    }
  ]
}
